<?xml version="1.0" encoding="utf-8"?>
<!-- Generator: Adobe Illustrator 19.1.0, SVG Export Plug-In . SVG Version: 6.00 Build 0)  -->
<svg version="1.1" xmlns="http://www.w3.org/2000/svg" xmlns:xlink="http://www.w3.org/1999/xlink" x="0px" y="0px"
	 viewBox="0 0 960 560" style="enable-background:new 0 0 960 560;" xml:space="preserve">
<style type="text/css">
	.st0{display:none;}
	.st1{display:inline;fill:#92A8D1;}
	.st2{display:inline;fill:#F7CAC9;}
	.st3{display:inline;fill:none;stroke:#FFFFFF;stroke-width:15;stroke-miterlimit:10;}
	.st4{display:inline;fill:#FFFFFF;}
	.st5{fill:#FFFFFF;}
	.st6{display:inline;}
</style>
<g id="färg" class="st0">
	<rect class="st1" width="960" height="560"/>
	<rect x="-15" y="297" class="st2" width="269" height="162"/>
</g>
<g id="lek" class="st0">
	<circle class="st3" cx="245" cy="200" r="74"/>
	<path class="st4" d="M425,515.5c-49.4,0-89.5-40.1-89.5-89.5s40.1-89.5,89.5-89.5s89.5,40.1,89.5,89.5S474.4,515.5,425,515.5z
		 M425,367.5c-32.3,0-58.5,26.2-58.5,58.5s26.2,58.5,58.5,58.5s58.5-26.2,58.5-58.5S457.3,367.5,425,367.5z"/>
	<path class="st4" d="M716,507.5c-49.4,0-89.5-40.1-89.5-89.5s40.1-89.5,89.5-89.5s89.5,40.1,89.5,89.5S765.4,507.5,716,507.5z
		 M716,359.5c-32.3,0-58.5,26.2-58.5,58.5s26.2,58.5,58.5,58.5s58.5-26.2,58.5-58.5S748.3,359.5,716,359.5z"/>
	<path class="st4" d="M597,481.4c-9.9-3.1-19.2-8.6-27.1-16.4c-25.9-25.9-25.9-68.1,0-94c25.9-25.9,68.1-25.9,94,0
		c7.8,7.8,13.3,17.2,16.4,27.1c5.2-0.3,10.5-0.2,15.7,0.3c-3.4-13.9-10.6-27.1-21.4-38c-31.8-31.8-83.5-31.8-115.3,0
		s-31.8,83.5,0,115.3c10.9,10.9,24.1,18,38,21.4C596.8,491.9,596.7,486.6,597,481.4z"/>
</g>
<g id="final">
	<path class="st5" d="M534,335.5c-15.6,0-30.2,4.4-42.6,12c2.4,1.9,4.7,4,6.9,6.2c1.5,1.5,3,3.1,4.3,4.7c9.4-5,20-7.9,31.4-7.9
		c36.7,0,66.5,29.8,66.5,66.5s-29.8,66.5-66.5,66.5s-66.5-29.8-66.5-66.5c0-14.1,4.4-27.2,12-38c-1-1.2-2-2.3-3.1-3.4
		c-2.5-2.5-5.2-4.8-8.1-6.7c-9.9,13.5-15.8,30.1-15.8,48.1c0,44.9,36.6,81.5,81.5,81.5s81.5-36.6,81.5-81.5S578.9,335.5,534,335.5z"
		/>
	<path class="st5" d="M434,498.5c15.6,0,30.2-4.4,42.6-12c-2.4-1.9-4.7-4-6.9-6.2c-1.5-1.5-3-3.1-4.3-4.7c-9.4,5-20,7.9-31.4,7.9
		c-36.7,0-66.5-29.8-66.5-66.5s29.8-66.5,66.5-66.5s66.5,29.8,66.5,66.5c0,14.1-4.4,27.2-12,38c1,1.2,2,2.3,3.1,3.4
		c2.5,2.5,5.2,4.8,8.1,6.7c9.9-13.5,15.8-30.1,15.8-48.1c0-44.9-36.6-81.5-81.5-81.5s-81.5,36.6-81.5,81.5S389.1,498.5,434,498.5z"
		/>
</g>
<g id="add" class="st0">
	<polygon class="st4" points="633,504 609,504 609,480 597,480 597,504 573,504 573,516 597,516 597,540 609,540 609,516 633,516 	
		"/>
</g>
<g id="appending" class="st0">
	<g class="st6">
		<path class="st5" d="M598.1,523.2v-4.8c0-1.3,0.2-2.5,0.6-3.6c0.4-1.1,1-2.1,1.7-3.1c0.7-1,1.5-1.9,2.3-2.8
			c0.9-0.9,1.8-1.8,2.7-2.6c0.8-0.8,1.6-1.5,2.3-2.3c0.8-0.8,1.5-1.6,2.1-2.4c0.6-0.9,1.1-1.8,1.4-2.7c0.4-1,0.5-2,0.5-3.2
			c0-1.2-0.2-2.4-0.5-3.5c-0.3-1.1-0.9-2.1-1.5-2.9c-0.7-0.8-1.6-1.5-2.6-1.9c-1.1-0.5-2.3-0.7-3.7-0.7c-1.3,0-2.5,0.3-3.6,0.9
			c-1.1,0.6-2.1,1.5-2.9,2.6c-0.8,1.1-1.4,2.5-1.9,4.1c-0.5,1.6-0.8,3.3-0.9,5.2h-8.5c0.1-2.9,0.6-5.5,1.5-7.9
			c0.9-2.4,2.2-4.4,3.7-6.2c1.6-1.7,3.4-3,5.6-4c2.1-0.9,4.5-1.4,7-1.4c3.1,0,5.7,0.4,7.9,1.3c2.2,0.9,3.9,2.1,5.3,3.5
			c1.4,1.5,2.4,3.1,3,5c0.6,1.9,0.9,3.8,0.9,5.8c0,1.4-0.2,2.7-0.6,3.8c-0.4,1.2-0.9,2.2-1.6,3.3c-0.7,1-1.4,2-2.2,3
			c-0.8,0.9-1.7,1.9-2.5,2.8c-0.7,0.7-1.4,1.5-2.1,2.2c-0.7,0.8-1.3,1.6-1.8,2.4c-0.5,0.8-1,1.7-1.3,2.6c-0.3,0.9-0.5,1.9-0.5,3v4.4
			H598.1z M608.1,530.3v8.9h-10v-8.9H608.1z"/>
	</g>
</g>
<g id="approved">
	<polygon class="st5" points="575.5,518 593.4,540.5 630.3,487.3 621.2,480 592.3,522 582.8,510.4 	"/>
</g>
<g id="nästan" class="st0">
	<g class="st6">
		<path class="st5" d="M691,273.5c-44.9,0-81.5-36.6-81.5-81.5s36.6-81.5,81.5-81.5s81.5,36.6,81.5,81.5S735.9,273.5,691,273.5z
			 M691,125.5c-36.7,0-66.5,29.8-66.5,66.5s29.8,66.5,66.5,66.5s66.5-29.8,66.5-66.5S727.7,125.5,691,125.5z"/>
	</g>
	<g class="st6">
		<path class="st5" d="M658.4,240.6c10.1-13.6,16.1-30.4,16.1-48.6s-6-35-16.1-48.6c-4.2,2.8-8,6.2-11.3,10
			c7.8,10.9,12.4,24.2,12.4,38.6s-4.6,27.7-12.4,38.6C650.4,234.4,654.2,237.7,658.4,240.6z"/>
		<path class="st5" d="M623.7,251c-9.2,4.8-19.6,7.5-30.7,7.5c-36.7,0-66.5-29.8-66.5-66.5s29.8-66.5,66.5-66.5
			c11.1,0,21.5,2.7,30.7,7.5c3.5-3.9,7.2-7.6,11.3-10.8c-12.3-7.4-26.7-11.7-42-11.7c-44.9,0-81.5,36.6-81.5,81.5
			s36.6,81.5,81.5,81.5c15.4,0,29.8-4.3,42-11.7C631,258.5,627.2,254.9,623.7,251z"/>
	</g>
</g>
</svg>
