<?xml version="1.0" encoding="UTF-8" standalone="no"?>
<svg width="264px" height="164px" viewBox="0 0 264 164" version="1.1" xmlns="http://www.w3.org/2000/svg" xmlns:xlink="http://www.w3.org/1999/xlink" xmlns:sketch="http://www.bohemiancoding.com/sketch/ns">
    <!-- Generator: Sketch 3.3.3 (12081) - http://www.bohemiancoding.com/sketch -->
    <title>Shape + Shape</title>
    <desc>Created with Sketch.</desc>
    <defs></defs>
    <g id="Page-1" stroke="none" stroke-width="1" fill="none" fill-rule="evenodd" sketch:type="MSPage">
        <g id="Shape-+-Shape" sketch:type="MSLayerGroup">
            <path d="M182,0.5 C166.4,0.5 151.8,4.9 139.4,12.5 C141.8,14.4 144.1,16.5 146.3,18.7 C147.8,20.2 149.3,21.8 150.6,23.4 C160,18.4 170.6,15.5 182,15.5 C218.7,15.5 248.5,45.3 248.5,82 C248.5,118.7 218.7,148.5 182,148.5 C145.3,148.5 115.5,118.7 115.5,82 C115.5,67.9 119.9,54.8 127.5,44 C126.5,42.8 125.5,41.7 124.4,40.6 C121.9,38.1 119.2,35.8 116.3,33.9 C106.4,47.4 100.5,64 100.5,82 C100.5,126.9 137.1,163.5 182,163.5 C226.9,163.5 263.5,126.9 263.5,82 C263.5,37.1 226.9,0.5 182,0.5 L182,0.5 Z" id="Shape" fill="#fff" sketch:type="MSShapeGroup"></path>
            <path d="M82,163.5 C97.6,163.5 112.2,159.1 124.6,151.5 C122.2,149.6 119.9,147.5 117.7,145.3 C116.2,143.8 114.7,142.2 113.4,140.6 C104,145.6 93.4,148.5 82,148.5 C45.3,148.5 15.5,118.7 15.5,82 C15.5,45.3 45.3,15.5 82,15.5 C118.7,15.5 148.5,45.3 148.5,82 C148.5,96.1 144.1,109.2 136.5,120 C137.5,121.2 138.5,122.3 139.6,123.4 C142.1,125.9 144.8,128.2 147.7,130.1 C157.6,116.6 163.5,100 163.5,82 C163.5,37.1 126.9,0.5 82,0.5 C37.1,0.5 0.5,37.1 0.5,82 C0.5,126.9 37.1,163.5 82,163.5 L82,163.5 Z" id="Shape" fill="#fff" sketch:type="MSShapeGroup"></path>
        </g>
    </g>
</svg>
