<?xml version="1.0" encoding="UTF-8" standalone="no"?>
<svg width="74px" height="61px" viewBox="0 0 74 61" version="1.1" xmlns="http://www.w3.org/2000/svg" xmlns:xlink="http://www.w3.org/1999/xlink" xmlns:sketch="http://www.bohemiancoding.com/sketch/ns">
    <!-- Generator: Sketch 3.3.3 (12081) - http://www.bohemiancoding.com/sketch -->
    <title>chat</title>
    <desc>Created with Sketch.</desc>
    <defs></defs>
    <g id="Page-1" stroke="none" stroke-width="1" fill="none" fill-rule="evenodd" sketch:type="MSPage">
        <g id="chat" sketch:type="MSLayerGroup" stroke="#fff" fill="#fff">
            <g id="Group" sketch:type="MSShapeGroup">
                <path d="M12.8,60.5 C12.4,60.5 12.1,60.3 11.9,60 C11.7,59.6 11.8,59.1 12.1,58.8 C15,55.8 17,52.3 17.7,48.6 C7.2,43.9 0.7,35.5 0.7,26.5 C0.7,12.2 16.8,0.5 36.7,0.5 C56.6,0.5 72.7,12.2 72.7,26.5 C72.7,40.8 56.6,52.5 36.7,52.5 C35,52.5 33.3,52.4 31.6,52.2 C26.7,56.3 20.2,59.1 13,60.4 C13,60.5 12.9,60.5 12.8,60.5 L12.8,60.5 Z M36.7,2.5 C18,2.5 2.7,13.3 2.7,26.5 C2.7,34.9 9,42.7 19.2,47.1 C19.6,47.3 19.9,47.7 19.8,48.2 C19.3,51.6 17.8,54.9 15.5,57.9 C21.4,56.5 26.7,53.9 30.6,50.5 C30.8,50.3 31.1,50.2 31.4,50.3 C33.1,50.5 34.9,50.6 36.7,50.6 C55.4,50.6 70.7,39.8 70.7,26.6 C70.7,13.4 55.5,2.5 36.7,2.5 L36.7,2.5 Z" id="Shape"></path>
                <g transform="translate(14.000000, 21.000000)" id="Shape">
                    <path d="M6.1,12.5 C2.9,12.5 0.3,9.9 0.3,6.7 C0.3,3.5 2.9,0.9 6.1,0.9 C9.3,0.9 11.9,3.5 11.9,6.7 C11.9,9.9 9.3,12.5 6.1,12.5 L6.1,12.5 Z M6.1,2.8 C4,2.8 2.3,4.5 2.3,6.6 C2.3,8.7 4,10.4 6.1,10.4 C8.2,10.4 9.9,8.7 9.9,6.6 C9.9,4.5 8.2,2.8 6.1,2.8 L6.1,2.8 Z"></path>
                    <path d="M22.7,12.5 C19.5,12.5 16.9,9.9 16.9,6.7 C16.9,3.5 19.5,0.9 22.7,0.9 C25.9,0.9 28.5,3.5 28.5,6.7 C28.6,9.9 25.9,12.5 22.7,12.5 L22.7,12.5 Z M22.7,2.8 C20.6,2.8 18.9,4.5 18.9,6.6 C18.9,8.7 20.6,10.4 22.7,10.4 C24.8,10.4 26.5,8.7 26.5,6.6 C26.5,4.5 24.8,2.8 22.7,2.8 L22.7,2.8 Z"></path>
                    <path d="M39.4,12.5 C36.2,12.5 33.6,9.9 33.6,6.7 C33.6,3.5 36.2,0.9 39.4,0.9 C42.6,0.9 45.2,3.5 45.2,6.7 C45.2,9.9 42.6,12.5 39.4,12.5 L39.4,12.5 Z M39.4,2.8 C37.3,2.8 35.6,4.5 35.6,6.6 C35.6,8.7 37.3,10.4 39.4,10.4 C41.5,10.4 43.2,8.7 43.2,6.6 C43.2,4.5 41.5,2.8 39.4,2.8 L39.4,2.8 Z"></path>
                </g>
            </g>
        </g>
    </g>
</svg>
