<?xml version="1.0" encoding="UTF-8" standalone="no"?>
<svg width="72px" height="73px" viewBox="0 0 72 73" version="1.1" xmlns="http://www.w3.org/2000/svg" xmlns:xlink="http://www.w3.org/1999/xlink" xmlns:sketch="http://www.bohemiancoding.com/sketch/ns">
    <!-- Generator: Sketch 3.3.3 (12081) - http://www.bohemiancoding.com/sketch -->
    <title>Group</title>
    <desc>Created with Sketch.</desc>
    <defs></defs>
    <g id="Page-1" stroke="none" stroke-width="1" fill="none" fill-rule="evenodd" sketch:type="MSPage">
        <g id="Group" sketch:type="MSLayerGroup" transform="translate(-1.000000, 0.000000)" fill="#FFFFFF">
            <g id="a_1_" sketch:type="MSShapeGroup">
                <g>
                    <path d="M62,24.5 C64,20 65.1,17.1 65.5,15.8 C65.7,14.9 65.6,14.2 65.1,13.7 L59.7,8.3 L59.2,7.9 L58.6,7.9 C57.7,7.9 54.6,9.2 49.1,11.7 L46.1,10.5 C44.3,5.9 43,3 42.3,1.9 C41.8,1.1 41.3,0.7 40.6,0.7 L33,0.7 C32.4,0.7 31.8,1.1 31.4,1.9 C30.7,3.1 29.6,6 27.9,10.5 L24.9,11.7 C19.4,9.3 16.1,8.1 15.2,8.1 L14.5,8.1 L8.7,13.9 C8.2,14.4 8.1,15.1 8.3,16 C8.6,17.3 9.9,20.2 12,24.7 L10.8,27.6 C6.2,29.4 3.3,30.7 2.2,31.4 C1.4,31.9 1,32.4 1,33.1 L1,40.7 C1,41.3 1.4,41.9 2.2,42.4 C3.4,43.1 6.2,44.2 10.8,45.9 L12,48.9 C10,53.4 8.9,56.3 8.5,57.6 C8.3,58.5 8.4,59.2 8.8,59.7 L14.2,65.1 L14.8,65.5 L15.4,65.5 C16.3,65.5 19.5,64.2 24.9,61.7 L27.9,62.9 C29.7,67.5 30.9,70.4 31.6,71.5 C32.1,72.3 32.7,72.7 33.3,72.7 L40.9,72.7 C41.5,72.7 42.1,72.3 42.5,71.5 C43.2,70.3 44.3,67.5 46,62.9 L49,61.7 C54.6,64.1 57.8,65.3 58.7,65.3 L59.4,65.3 L65.2,59.5 C65.7,59 65.8,58.3 65.5,57.4 C65.2,56.1 63.9,53.2 61.9,48.8 L63.1,45.8 C67.7,44 70.6,42.8 71.7,42.1 C72.5,41.6 72.9,41.1 72.9,40.4 L72.9,32.8 C72.9,32.1 72.5,31.6 71.7,31.1 C70.5,30.4 67.7,29.3 63,27.6 L62,24.5 L62,24.5 Z M70,33.5 L70,39.4 C68.6,40.1 65.8,41.3 61.4,43 L60.8,43.2 L58.5,48.7 L58.8,49.3 C60.6,53.2 61.8,56 62.4,57.6 L58.2,61.8 C56.5,61.3 53.7,60.1 49.6,58.3 L49,58 L43.5,60.3 L43.3,61 C41.9,64.9 40.8,67.7 39.9,69.5 L33.9,69.5 C33.1,67.9 31.9,65 30.3,61 L30.1,60.4 L24.6,58.1 L24,58.4 C20.2,60.2 17.4,61.4 15.6,62.1 L11.4,57.9 C11.9,56.3 13.1,53.5 14.9,49.3 L15.2,48.7 L12.9,43.2 L12.3,43 C8.1,41.5 5.3,40.3 3.8,39.6 L3.8,33.7 C5.2,33 8.1,31.8 12.3,30.1 L12.9,29.9 L15.2,24.4 L14.9,23.8 C13,19.8 11.8,17 11.3,15.4 L15.5,11.2 C17.1,11.7 19.9,12.9 24.1,14.7 L24.7,15 L30.2,12.7 L30.4,12 C31.9,7.8 33.1,5 33.8,3.5 L39.8,3.5 C40.5,4.9 41.7,7.7 43.4,12 L43.6,12.6 L49.1,14.8 L49.7,14.5 C53.6,12.7 56.4,11.5 58.1,10.8 L62.3,15 C61.8,16.5 60.7,19.3 58.8,23.6 L58.5,24.2 L60.8,29.7 L61.4,29.9 C65.6,31.7 68.5,32.8 70,33.5 L70,33.5 Z M45.4,28.1 C43,25.7 40.2,24.6 36.9,24.6 C33.5,24.6 30.7,25.8 28.3,28.1 C26,30.5 24.8,33.3 24.8,36.7 C24.8,40 26,42.9 28.3,45.3 C30.7,47.7 33.6,48.8 36.9,48.8 C40.2,48.8 43.1,47.6 45.4,45.3 C47.8,42.9 48.9,40.1 48.9,36.7 C49,33.3 47.8,30.4 45.4,28.1 L45.4,28.1 Z M30.4,30.2 C32.2,28.4 34.3,27.5 36.9,27.5 C39.4,27.5 41.5,28.4 43.3,30.2 C45.1,32 46,34.1 46,36.6 C46,39.1 45.1,41.2 43.3,43 C41.5,44.8 39.4,45.7 36.9,45.7 C34.4,45.7 32.2,44.8 30.4,43 C28.6,41.2 27.7,39.1 27.7,36.6 C27.7,34.1 28.6,32 30.4,30.2 L30.4,30.2 Z" id="Shape"></path>
                </g>
            </g>
        </g>
    </g>
</svg>